<svg width="380" height="380" viewBox="0 0 380 380" fill="none" xmlns="http://www.w3.org/2000/svg">
<path d="M260.299 190.5C260.299 242.356 251.883 289.072 238.456 322.64C231.736 339.438 223.861 352.696 215.371 361.673C206.892 370.639 198.147 375 189.499 375C180.851 375 172.107 370.639 163.627 361.673C155.138 352.696 147.262 339.438 140.543 322.64C127.116 289.072 118.699 242.356 118.699 190.5C118.699 138.644 127.116 91.928 140.543 58.3602C147.262 41.5625 155.138 28.3043 163.627 19.3274C172.107 10.361 180.851 6 189.499 6C198.147 6 206.892 10.361 215.371 19.3274C223.861 28.3043 231.736 41.5625 238.456 58.3602C251.883 91.928 260.299 138.644 260.299 190.5Z" stroke="white" stroke-width="10"/>
<path d="M189.5 119.7C241.356 119.7 288.072 128.116 321.64 141.543C338.438 148.263 351.696 156.138 360.673 164.628C369.639 173.107 374 181.852 374 190.5C374 199.148 369.639 207.892 360.673 216.372C351.696 224.861 338.438 232.737 321.64 239.456C288.072 252.883 241.356 261.3 189.5 261.3C137.644 261.3 90.928 252.883 57.3602 239.456C40.5625 232.737 27.3043 224.861 18.3274 216.372C9.36101 207.892 5 199.148 5 190.5C5 181.852 9.36101 173.107 18.3274 164.628C27.3043 156.138 40.5625 148.263 57.3602 141.543C90.928 128.116 137.644 119.7 189.5 119.7Z" stroke="white" stroke-width="10"/>
<circle cx="190.5" cy="189.5" r="184.5" stroke="white" stroke-width="10"/>
</svg>
