<svg width="379" height="380" viewBox="0 0 379 380" fill="none" xmlns="http://www.w3.org/2000/svg">
<path d="M264.728 167.129C264.981 172.26 265.151 177.454 265.236 182.703L260.237 182.784C260.278 185.343 260.299 187.915 260.299 190.5C260.299 193.085 260.278 195.657 260.237 198.216L265.236 198.297C265.151 203.546 264.981 208.74 264.728 213.871L259.734 213.625C259.479 218.815 259.139 223.938 258.718 228.985L263.701 229.401C263.262 234.652 262.737 239.823 262.129 244.905L257.164 244.311C256.544 249.493 255.837 254.578 255.047 259.556L259.985 260.34C259.156 265.568 258.236 270.682 257.23 275.669L252.329 274.681C251.294 279.815 250.168 284.808 248.957 289.648L253.808 290.861C252.513 296.036 251.121 301.044 249.638 305.868L244.858 304.399C243.311 309.434 241.665 314.256 239.93 318.846L244.608 320.614C242.698 325.667 240.679 330.457 238.559 334.961L234.035 332.831C231.779 337.625 229.417 342.06 226.966 346.11L231.244 348.699C228.387 353.419 225.396 357.669 222.287 361.404L218.444 358.205C215.066 362.262 211.607 365.594 208.109 368.187L211.087 372.204C206.62 375.516 201.981 377.826 197.211 379.031L195.987 374.184C193.84 374.726 191.678 375 189.499 375C187.32 375 185.159 374.726 183.012 374.184L181.787 379.031C177.017 377.826 172.378 375.516 167.911 372.204L170.889 368.187C167.391 365.594 163.933 362.262 160.555 358.205L156.712 361.404C153.603 357.669 150.611 353.419 147.755 348.699L152.033 346.11C149.582 342.06 147.22 337.625 144.964 332.831L140.44 334.961C138.32 330.457 136.3 325.667 134.391 320.614L139.068 318.846C137.333 314.256 135.688 309.434 134.14 304.399L129.361 305.868C127.878 301.044 126.486 296.036 125.191 290.861L130.041 289.648C128.83 284.808 127.704 279.815 126.669 274.681L121.768 275.669C120.763 270.682 119.843 265.568 119.013 260.34L123.951 259.556C123.161 254.578 122.454 249.493 121.834 244.311L116.869 244.905C116.261 239.823 115.736 234.652 115.298 229.401L120.281 228.985C119.859 223.938 119.519 218.815 119.264 213.625L114.27 213.871C114.018 208.74 113.847 203.546 113.762 198.297L118.762 198.216C118.72 195.657 118.699 193.085 118.699 190.5C118.699 187.915 118.72 185.343 118.762 182.784L113.762 182.703C113.847 177.454 114.018 172.26 114.27 167.129L119.264 167.375C119.519 162.185 119.859 157.062 120.281 152.015L115.298 151.599C115.736 146.348 116.261 141.177 116.869 136.095L121.834 136.689C122.454 131.507 123.161 126.422 123.951 121.444L119.013 120.66C119.843 115.432 120.763 110.318 121.768 105.331L126.669 106.319C127.704 101.185 128.83 96.1922 130.041 91.3525L125.191 90.1388C126.486 84.9635 127.878 79.9558 129.361 75.1316L134.14 76.6007C135.688 71.5658 137.333 66.7441 139.068 62.1537L134.391 60.3862C136.3 55.3334 138.32 50.5431 140.44 46.0393L144.964 48.1686C147.22 43.3747 149.582 38.9399 152.033 34.8895L147.755 32.3009C150.611 27.5808 153.603 23.3313 156.712 19.5964L160.555 22.7954C163.933 18.7378 167.391 15.4059 170.889 12.8126L167.911 8.79614C172.378 5.48416 177.017 3.17366 181.787 1.96872L183.012 6.81643C185.159 6.27413 187.32 6 189.499 6C191.678 6 193.84 6.27413 195.987 6.81643L197.211 1.96872C201.981 3.17366 206.62 5.48417 211.087 8.79616L208.109 12.8126C211.607 15.4059 215.066 18.7378 218.444 22.7954L222.287 19.5964C225.396 23.3313 228.387 27.5809 231.244 32.301L226.966 34.8896C229.417 38.9399 231.779 43.3747 234.035 48.1686L238.559 46.0393C240.679 50.5431 242.698 55.3334 244.608 60.3862L239.93 62.1537C241.665 66.7441 243.311 71.5658 244.858 76.6007L249.638 75.1316C251.121 79.9558 252.513 84.9635 253.808 90.1388L248.957 91.3525C250.168 96.1922 251.294 101.185 252.329 106.319L257.23 105.331C258.236 110.318 259.156 115.432 259.985 120.66L255.047 121.444C255.837 126.422 256.544 131.507 257.164 136.689L262.129 136.095C262.737 141.177 263.262 146.348 263.701 151.599L258.718 152.015C259.139 157.062 259.479 162.185 259.734 167.375L264.728 167.129Z" stroke="white" stroke-width="10" stroke-dasharray="15 15"/>
<path d="M166.129 115.271C171.26 115.018 176.454 114.848 181.703 114.763L181.784 119.762C184.343 119.721 186.915 119.7 189.5 119.7C192.085 119.7 194.657 119.721 197.216 119.762L197.297 114.763C202.546 114.848 207.74 115.018 212.871 115.271L212.625 120.265C217.815 120.52 222.938 120.86 227.985 121.281L228.401 116.298C233.652 116.737 238.823 117.262 243.905 117.87L243.311 122.835C248.493 123.455 253.578 124.162 258.556 124.952L259.34 120.014C264.568 120.843 269.682 121.763 274.669 122.769L273.681 127.67C278.815 128.705 283.808 129.831 288.648 131.042L289.861 126.191C295.036 127.486 300.044 128.878 304.868 130.361L303.399 135.141C308.434 136.688 313.256 138.334 317.846 140.069L319.614 135.391C324.667 137.301 329.457 139.32 333.961 141.44L331.831 145.964C336.625 148.22 341.06 150.582 345.11 153.033L347.699 148.755C352.419 151.612 356.669 154.603 360.404 157.712L357.205 161.555C361.262 164.933 364.594 168.392 367.187 171.89L371.204 168.912C374.516 173.379 376.826 178.018 378.031 182.788L373.184 184.012C373.726 186.159 374 188.321 374 190.5C374 192.679 373.726 194.84 373.184 196.987L378.031 198.212C376.826 202.982 374.516 207.621 371.204 212.088L367.187 209.11C364.594 212.608 361.262 216.067 357.205 219.444L360.404 223.287C356.669 226.396 352.419 229.388 347.699 232.244L345.11 227.966C341.06 230.417 336.625 232.779 331.831 235.035L333.961 239.559C329.457 241.679 324.667 243.699 319.614 245.608L317.846 240.931C313.256 242.666 308.434 244.311 303.399 245.859L304.868 250.638C300.044 252.121 295.036 253.513 289.861 254.808L288.648 249.958C283.808 251.169 278.815 252.295 273.681 253.33L274.669 258.231C269.682 259.236 264.568 260.156 259.34 260.986L258.556 256.048C253.578 256.838 248.493 257.545 243.311 258.165L243.905 263.13C238.823 263.738 233.652 264.263 228.401 264.701L227.985 259.718C222.938 260.14 217.815 260.48 212.625 260.735L212.871 265.729C207.74 265.981 202.546 266.152 197.297 266.237L197.216 261.237C194.657 261.279 192.085 261.3 189.5 261.3C186.915 261.3 184.343 261.279 181.784 261.237L181.703 266.237C176.454 266.152 171.26 265.981 166.129 265.729L166.375 260.735C161.185 260.48 156.062 260.14 151.015 259.718L150.599 264.701C145.348 264.263 140.177 263.738 135.095 263.13L135.689 258.165C130.507 257.545 125.422 256.838 120.444 256.048L119.66 260.986C114.432 260.156 109.318 259.236 104.331 258.231L105.319 253.33C100.185 252.295 95.1922 251.169 90.3525 249.958L89.1388 254.808C83.9635 253.513 78.9558 252.121 74.1316 250.638L75.6007 245.859C70.5658 244.311 65.7441 242.666 61.1537 240.931L59.3862 245.608C54.3334 243.699 49.5431 241.679 45.0393 239.559L47.1686 235.035C42.3747 232.779 37.9399 230.417 33.8895 227.966L31.3009 232.244C26.5808 229.388 22.3313 226.396 18.5964 223.287L21.7954 219.444C17.7378 216.067 14.4059 212.608 11.8126 209.11L7.79614 212.088C4.48415 207.621 2.17365 202.982 0.968712 198.212L5.81642 196.987C5.27413 194.84 5 192.679 5 190.5C5 188.321 5.27413 186.159 5.81643 184.012L0.968716 182.788C2.17366 178.018 4.48417 173.379 7.79615 168.912L11.8126 171.89C14.4059 168.392 17.7378 164.933 21.7954 161.555L18.5964 157.712C22.3313 154.603 26.5809 151.612 31.301 148.755L33.8896 153.033C37.9399 150.582 42.3747 148.22 47.1686 145.964L45.0393 141.44C49.5431 139.32 54.3334 137.301 59.3862 135.391L61.1537 140.069C65.7441 138.334 70.5658 136.688 75.6007 135.141L74.1316 130.361C78.9558 128.878 83.9635 127.486 89.1388 126.191L90.3525 131.042C95.1922 129.831 100.185 128.705 105.319 127.67L104.331 122.769C109.318 121.763 114.432 120.843 119.66 120.014L120.444 124.952C125.422 124.162 130.507 123.455 135.689 122.835L135.095 117.87C140.177 117.262 145.348 116.737 150.599 116.298L151.015 121.281C156.062 120.86 161.185 120.52 166.375 120.265L166.129 115.271Z" stroke="white" stroke-width="10" stroke-dasharray="15 15"/>
<circle cx="189.5" cy="189.5" r="184.5" stroke="white" stroke-width="10" stroke-dasharray="12 12"/>
</svg>
