<svg width="380" height="152" viewBox="0 0 380 152" fill="none" xmlns="http://www.w3.org/2000/svg">
<path d="M68.0366 23.5C48.5366 29.3333 3.5366 57 5.0366 75C6.5366 93 17.0366 100.5 17.0366 100.5L39.5366 116L68.0366 129L96.0366 137L127.537 143.5L160.037 146.5H189.537H220.537L247.037 143.5L280.037 137L309.037 129L336.537 117.5L362.537 100C366.37 94.3333 374.037 81.4 374.037 75C374.037 68.6 364.703 56.6667 360.037 51.5L339.037 35L311.037 22.5L283.537 15.5L252.537 10L220.537 5.5H189.537H160.037L132.037 8L99.0366 15.5L68.0366 23.5Z" stroke="white" stroke-width="10" stroke-dasharray="20 20"/>
</svg>
